<?xml version="1.0" encoding="UTF-8"?>
<svg version="1.1" xmlns="http://www.w3.org/2000/svg" width="1024" height="1024">
<path d="M0 0 C337.92 0 675.84 0 1024 0 C1024 337.92 1024 675.84 1024 1024 C686.08 1024 348.16 1024 0 1024 C0 686.08 0 348.16 0 0 Z " fill="#0C1421" transform="translate(0,0)"/>
<path d="M0 0 C1.84735018 0.84832308 3.69500925 1.69597381 5.54296875 2.54296875 C21.4615188 9.95760315 36.04414685 18.30994712 50 29 C50.81597656 29.62261719 51.63195312 30.24523437 52.47265625 30.88671875 C58.30181684 35.44103915 63.73834051 40.3421531 69.140625 45.38671875 C71.11955791 47.19533367 73.0902604 48.91882808 75.16015625 50.61328125 C77.40712667 52.50172544 79.30125047 54.27493353 81.1875 56.5 C81.7753125 57.19222656 82.363125 57.88445312 82.96875 58.59765625 C83.6390625 59.39042969 84.309375 60.18320312 85 61 C86.22203125 62.39025391 86.22203125 62.39025391 87.46875 63.80859375 C111.6070509 91.42613027 129.57174834 124.29761468 138.47192383 159.94116211 C138.94987476 161.80457415 139.49648902 163.65004157 140.05078125 165.4921875 C141.19925107 169.736327 141.90323683 173.96973467 142.5625 178.3125 C142.68818359 179.10333984 142.81386719 179.89417969 142.94335938 180.70898438 C144.32719565 189.62784538 145.15379299 198.47758526 145.23828125 207.50390625 C145.2480751 208.37673752 145.25786896 209.24956879 145.26795959 210.14884949 C145.43718285 229.13102282 145.33646572 247.41986148 141 266 C140.67854004 267.42650879 140.67854004 267.42650879 140.35058594 268.88183594 C127.84565011 323.36112697 99.49705038 374.14822876 66.55712891 418.86181641 C64.50878886 421.67451037 62.52212447 424.52788919 60.53540039 427.38427734 C54.21413031 436.46435799 47.51670194 445.2100942 40.66210938 453.89257812 C39.09700346 455.87700737 37.53916036 457.86685458 35.984375 459.859375 C30.41810554 466.98634336 24.74969999 474.01969875 19 481 C17.54155659 482.79157706 16.08322483 484.58324502 14.625 486.375 C7.8706995 494.62894415 0.98379085 502.77159811 -6.05859375 510.78125 C-16.04301749 522.15219452 -16.04301749 522.15219452 -25.40234375 534.03515625 C-27.4372261 536.53771327 -29.70762036 538.73077571 -32 541 C-34.14583803 543.25154776 -36.26138929 545.53071549 -38.375 547.8125 C-38.9522583 548.43487549 -39.5295166 549.05725098 -40.12426758 549.69848633 C-43.56478419 553.41847516 -46.95107451 557.17531463 -50.26171875 561.01171875 C-52.47256489 563.54052928 -54.73596443 566.01872564 -57 568.5 C-59.82577384 571.59731967 -62.63218779 574.7040415 -65.375 577.875 C-68.9753538 582.01880343 -72.70708549 586.03686055 -76.43896484 590.06176758 C-80.35954102 594.2935495 -84.22623927 598.57037857 -88.0625 602.87890625 C-88.701875 603.57886719 -89.34125 604.27882813 -90 605 C-90.66128906 605.73992188 -91.32257813 606.47984375 -92.00390625 607.2421875 C-94.5229517 609.46052498 -96.60902391 609.51760121 -99.90234375 609.62890625 C-103.16530884 608.65062435 -104.71926819 606.49022126 -107 604 C-108.0042477 602.94439777 -109.00950155 601.88975206 -110.015625 600.8359375 C-115.81341871 594.65310968 -121.39259218 588.39843069 -126.69140625 581.77734375 C-129.3527935 578.5755733 -132.15460827 575.5376359 -135 572.5 C-138.62950608 568.62527236 -142.11747959 564.71100257 -145.4375 560.5625 C-148.94643322 556.187478 -152.65846079 552.07980841 -156.5 548 C-161.1466361 543.06482764 -165.51926249 538.00524355 -169.7578125 532.7109375 C-172.23907733 529.71094135 -174.84886537 526.84868089 -177.5 524 C-181.73083673 519.44764009 -185.72275908 514.75385545 -189.62109375 509.9140625 C-192.35905627 506.56017081 -195.17234557 503.27823425 -198 500 C-203.09894591 494.07782002 -208.07905993 488.0712897 -213 482 C-214.03080794 480.73922178 -215.06208999 479.47883109 -216.09375 478.21875 C-222.36343257 470.55055985 -228.5312855 462.82622939 -234.52294922 454.93798828 C-236.25917923 452.65993972 -238.00658855 450.39064837 -239.75390625 448.12109375 C-247.63006796 437.86895187 -255.28725768 427.5101548 -262.66796875 416.89648438 C-263.91609518 415.1194598 -265.18540728 413.36107592 -266.46875 411.609375 C-316.57858248 343.11443177 -352.7941102 263.8160602 -340.25 177.65234375 C-334.84928643 143.09034053 -320.12520246 108.89686606 -299 81 C-297.93845703 79.59427734 -297.93845703 79.59427734 -296.85546875 78.16015625 C-292.84594416 73.02764844 -288.54150722 68.18041645 -284.15234375 63.37109375 C-282.23144623 61.25496889 -280.36010568 59.10690731 -278.5 56.9375 C-271.82539039 49.31374865 -264.60754725 42.54830143 -256.63867188 36.29248047 C-255.49387974 35.38954103 -254.35499906 34.47907855 -253.22070312 33.56298828 C-184.20027231 -22.1555174 -81.30593123 -38.63452656 0 0 Z " fill="#0C1522" transform="translate(612,212)"/>
<path d="M0 0 C1.84735018 0.84832308 3.69500925 1.69597381 5.54296875 2.54296875 C21.4615188 9.95760315 36.04414685 18.30994712 50 29 C50.81597656 29.62261719 51.63195312 30.24523437 52.47265625 30.88671875 C58.30181684 35.44103915 63.73834051 40.3421531 69.140625 45.38671875 C71.11955791 47.19533367 73.0902604 48.91882808 75.16015625 50.61328125 C77.40712667 52.50172544 79.30125047 54.27493353 81.1875 56.5 C81.7753125 57.19222656 82.363125 57.88445312 82.96875 58.59765625 C83.6390625 59.39042969 84.309375 60.18320312 85 61 C86.22203125 62.39025391 86.22203125 62.39025391 87.46875 63.80859375 C111.6070509 91.42613027 129.57174834 124.29761468 138.47192383 159.94116211 C138.94987476 161.80457415 139.49648902 163.65004157 140.05078125 165.4921875 C141.19925107 169.736327 141.90323683 173.96973467 142.5625 178.3125 C142.68818359 179.10333984 142.81386719 179.89417969 142.94335938 180.70898438 C144.32719565 189.62784538 145.15379299 198.47758526 145.23828125 207.50390625 C145.2480751 208.37673752 145.25786896 209.24956879 145.26795959 210.14884949 C145.43718285 229.13102282 145.33646572 247.41986148 141 266 C140.67854004 267.42650879 140.67854004 267.42650879 140.35058594 268.88183594 C127.84565011 323.36112697 99.49705038 374.14822876 66.55712891 418.86181641 C64.50878886 421.67451037 62.52212447 424.52788919 60.53540039 427.38427734 C54.21413031 436.46435799 47.51670194 445.2100942 40.66210938 453.89257812 C39.09700346 455.87700737 37.53916036 457.86685458 35.984375 459.859375 C30.41810554 466.98634336 24.74969999 474.01969875 19 481 C17.54155659 482.79157706 16.08322483 484.58324502 14.625 486.375 C7.8706995 494.62894415 0.98379085 502.77159811 -6.05859375 510.78125 C-16.04301749 522.15219452 -16.04301749 522.15219452 -25.40234375 534.03515625 C-27.4372261 536.53771327 -29.70762036 538.73077571 -32 541 C-34.14583803 543.25154776 -36.26138929 545.53071549 -38.375 547.8125 C-38.9522583 548.43487549 -39.5295166 549.05725098 -40.12426758 549.69848633 C-43.56478419 553.41847516 -46.95107451 557.17531463 -50.26171875 561.01171875 C-52.47256489 563.54052928 -54.73596443 566.01872564 -57 568.5 C-59.82577384 571.59731967 -62.63218779 574.7040415 -65.375 577.875 C-68.9753538 582.01880343 -72.70708549 586.03686055 -76.43896484 590.06176758 C-80.35954102 594.2935495 -84.22623927 598.57037857 -88.0625 602.87890625 C-88.701875 603.57886719 -89.34125 604.27882813 -90 605 C-90.66128906 605.73992188 -91.32257813 606.47984375 -92.00390625 607.2421875 C-94.5229517 609.46052498 -96.60902391 609.51760121 -99.90234375 609.62890625 C-103.16530884 608.65062435 -104.71926819 606.49022126 -107 604 C-108.0042477 602.94439777 -109.00950155 601.88975206 -110.015625 600.8359375 C-115.81341871 594.65310968 -121.39259218 588.39843069 -126.69140625 581.77734375 C-129.3527935 578.5755733 -132.15460827 575.5376359 -135 572.5 C-138.62950608 568.62527236 -142.11747959 564.71100257 -145.4375 560.5625 C-148.94643322 556.187478 -152.65846079 552.07980841 -156.5 548 C-161.1466361 543.06482764 -165.51926249 538.00524355 -169.7578125 532.7109375 C-172.23907733 529.71094135 -174.84886537 526.84868089 -177.5 524 C-181.73083673 519.44764009 -185.72275908 514.75385545 -189.62109375 509.9140625 C-192.35905627 506.56017081 -195.17234557 503.27823425 -198 500 C-203.09894591 494.07782002 -208.07905993 488.0712897 -213 482 C-214.03080794 480.73922178 -215.06208999 479.47883109 -216.09375 478.21875 C-222.36343257 470.55055985 -228.5312855 462.82622939 -234.52294922 454.93798828 C-236.25917923 452.65993972 -238.00658855 450.39064837 -239.75390625 448.12109375 C-247.63006796 437.86895187 -255.28725768 427.5101548 -262.66796875 416.89648438 C-263.91609518 415.1194598 -265.18540728 413.36107592 -266.46875 411.609375 C-316.57858248 343.11443177 -352.7941102 263.8160602 -340.25 177.65234375 C-334.84928643 143.09034053 -320.12520246 108.89686606 -299 81 C-297.93845703 79.59427734 -297.93845703 79.59427734 -296.85546875 78.16015625 C-292.84594416 73.02764844 -288.54150722 68.18041645 -284.15234375 63.37109375 C-282.23144623 61.25496889 -280.36010568 59.10690731 -278.5 56.9375 C-271.82539039 49.31374865 -264.60754725 42.54830143 -256.63867188 36.29248047 C-255.49387974 35.38954103 -254.35499906 34.47907855 -253.22070312 33.56298828 C-184.20027231 -22.1555174 -81.30593123 -38.63452656 0 0 Z M-143 11 C-143.95438965 11.20898926 -144.9087793 11.41797852 -145.89208984 11.63330078 C-174.21658143 17.99808723 -200.36982573 29.13608403 -224 46 C-225.02351563 46.72832031 -226.04703125 47.45664062 -227.1015625 48.20703125 C-255.68004573 69.13191013 -277.50893633 94.71113599 -294 126 C-294.46913818 126.88937256 -294.93827637 127.77874512 -295.42163086 128.69506836 C-299.18782124 136.01497266 -302.29083254 143.43924238 -305.0625 151.1875 C-305.70819946 152.99214722 -305.70819946 152.99214722 -306.36694336 154.83325195 C-310.45478598 166.6571103 -313.12721128 178.64123928 -315 191 C-315.10908691 191.692146 -315.21817383 192.38429199 -315.33056641 193.09741211 C-316.40670346 201.06522261 -316.2439272 209.16172748 -316.25 217.1875 C-316.25067474 217.9879071 -316.25134949 218.78831421 -316.25204468 219.61297607 C-316.22696612 238.37689274 -314.23669311 255.91091116 -308.65405273 273.87792969 C-308.1895787 275.384913 -307.74009418 276.89655253 -307.30102539 278.41113281 C-305.63075747 284.15521139 -303.68239332 289.70640654 -301.4375 295.25 C-301.0974292 296.09336914 -300.7573584 296.93673828 -300.40698242 297.80566406 C-297.67077077 304.51125757 -294.78366179 311.14543288 -291.8125 317.75 C-291.40894287 318.65395508 -291.00538574 319.55791016 -290.58959961 320.48925781 C-288.10394471 325.93891018 -285.31833667 331.01241819 -282 336 C-281.20903931 335.32408813 -281.20903931 335.32408813 -280.40209961 334.63452148 C-279.14436849 333.55973307 -277.88663737 332.48494466 -276.62890625 331.41015625 C-275.73008851 330.63204305 -274.84063472 329.84063472 -274 329 C-273.9119898 326.15088434 -273.88826231 323.32549468 -273.90576172 320.47631836 C-273.90854957 318.62173987 -273.9112193 316.7671612 -273.91378784 314.9125824 C-273.91836313 313.42906186 -273.91836313 313.42906186 -273.92303085 311.91557121 C-273.93433657 306.69172382 -273.91387661 301.46796527 -273.8984375 296.24414062 C-273.88015757 289.59008965 -273.87139729 282.93650117 -273.90039062 276.2824707 C-273.92295793 270.9122886 -273.91145665 265.54311583 -273.87738419 260.17300606 C-273.87062148 258.12817238 -273.87627694 256.08325752 -273.89474106 254.03849602 C-274.04708346 235.99717468 -274.04708346 235.99717468 -269.92822266 231.15942383 C-268.65191681 230.06640138 -267.34147522 229.01197773 -266 228 C-264.7368878 226.75304721 -263.48772973 225.49182205 -262.25195312 224.21777344 C-260.93042232 222.92954775 -259.60678532 221.64347983 -258.28125 220.359375 C-256.84056636 218.94590289 -255.40047861 217.5318232 -253.9609375 216.1171875 C-251.71701416 213.91677788 -249.46955624 211.72051776 -247.21191406 209.53417969 C-245.01532884 207.40384219 -242.83470662 205.25822582 -240.65625 203.109375 C-239.97308716 202.45515564 -239.28992432 201.80093628 -238.58605957 201.12689209 C-237.65884094 200.20508148 -237.65884094 200.20508148 -236.71289062 199.26464844 C-236.16330688 198.72918396 -235.61372314 198.19371948 -235.04748535 197.64202881 C-233.77039877 196.02747665 -233.77039877 196.02747665 -234.26965332 193.92193604 C-235.07863108 191.79307922 -236.06417983 189.79673525 -237.0625 187.75 C-240.53780208 179.18858064 -240.58379654 167.53590359 -237.0234375 158.9453125 C-232.32866057 150.02165253 -225.43632137 144.56260943 -216.046875 140.82421875 C-206.44636003 138.22715637 -196.32826535 139.70231627 -187.59375 144.25390625 C-182.08398961 147.62404302 -178.35794338 151.50889501 -175 157 C-174.58621094 157.63164062 -174.17242187 158.26328125 -173.74609375 158.9140625 C-169.77141777 166.08786793 -169.71494488 175.03714752 -171 183 C-172.72841946 188.07689352 -174.86207573 192.86699049 -178.69921875 196.6953125 C-180.23534862 197.92899759 -180.23534862 197.92899759 -180 200 C-180.87011719 200.433125 -180.87011719 200.433125 -181.7578125 200.875 C-183.15271129 201.57487953 -184.5440591 202.28194156 -185.9296875 203 C-186.57164062 203.33 -187.21359375 203.66 -187.875 204 C-188.51179688 204.33 -189.14859375 204.66 -189.8046875 205 C-194.98289529 207.35875657 -198.71997759 208.10426366 -204.31860352 207.61474609 C-210.82673861 207.11459726 -215.95357484 207.03868329 -221.08666992 211.42114258 C-223.54313438 213.84103436 -225.77382475 216.36231963 -228 219 C-229.4365077 220.58423367 -230.87396274 222.16760901 -232.3125 223.75 C-232.97074768 224.52992813 -233.62899536 225.30985626 -234.30718994 226.11341858 C-236.3867012 228.34256896 -238.33724166 230.14706836 -240.68353271 232.05003357 C-247.27081423 237.5827924 -252.62697107 242.46999119 -253.6259346 251.3459177 C-253.83988096 255.96492045 -253.739246 260.54121181 -253.578125 265.16015625 C-253.56493263 267.16455258 -253.55885935 269.16900702 -253.55950928 271.17344666 C-253.54437018 276.40611661 -253.44254549 281.63329411 -253.31866455 286.86437988 C-253.15992465 294.2578496 -253.12173635 301.65311981 -253.06903076 309.04795837 C-253.04069851 312.97667525 -252.97989642 316.90275758 -252.89239502 320.83058167 C-252.86338568 322.62150922 -252.83447028 324.4124383 -252.80566406 326.20336914 C-252.7806633 327.00914902 -252.75566254 327.81492889 -252.72990417 328.64512634 C-252.67051589 333.53342041 -253.33197022 336.7412708 -256 341 C-258.0859375 343.125 -258.0859375 343.125 -260.375 345 C-264.03765205 348.14198093 -267.31439575 350.97159363 -270 355 C-269.65126901 358.74027337 -268.41667375 361.36217255 -266.4453125 364.51953125 C-265.6553186 365.79328613 -265.6553186 365.79328613 -264.84936523 367.09277344 C-264.28032471 367.9902832 -263.71128418 368.88779297 -263.125 369.8125 C-262.53855713 370.74739258 -261.95211426 371.68228516 -261.34790039 372.64550781 C-256.12098435 380.92316682 -250.64602961 389.00433281 -245 397 C-243.8827396 398.5884904 -242.76555502 400.17703412 -241.6484375 401.765625 C-238.77321973 405.84915898 -235.88897655 409.92619013 -233 414 C-218.16429744 406.92356622 -202.54892251 392.53127598 -195 378 C-189.21042701 361.02063756 -191.48732087 341.23421133 -192.43499756 323.63262939 C-192.81689553 315.82868611 -192.9575107 308.01711321 -193.13280296 300.2063179 C-193.27282537 294.14527291 -193.44750396 288.09239151 -193.73355103 282.03631592 C-193.77929764 280.93258133 -193.82504425 279.82884674 -193.87217712 278.69166565 C-193.95880946 276.64030305 -194.06142829 274.58952438 -194.18345642 272.53996277 C-194.45656763 265.48463553 -192.85231323 262.20765504 -188.12345886 256.88967896 C-187.47838882 256.25206635 -186.83331879 255.61445374 -186.16870117 254.95751953 C-185.43080856 254.22300568 -184.69291595 253.48849182 -183.93266296 252.73171997 C-183.14406387 251.95658051 -182.35546478 251.18144104 -181.54296875 250.3828125 C-180.72178055 249.56682587 -179.90059235 248.75083923 -179.05451965 247.91012573 C-176.43690807 245.31026356 -173.81270429 242.71719346 -171.1875 240.125 C-168.57385915 237.53911505 -165.96174438 234.95173511 -163.35261536 232.36129761 C-161.73262183 230.7534105 -160.10996375 229.14820188 -158.48417664 227.5461731 C-155.02917758 224.1213665 -151.67646609 220.68165055 -148.52246094 216.97631836 C-145.33947295 213.27667054 -141.87734078 210.00955833 -138.26075745 206.7374115 C-134.72977957 203.54059475 -131.27345749 200.26623953 -127.80932617 196.99731445 C-125.9846792 195.29689462 -124.14082672 193.61684308 -122.27807617 191.95825195 C-109.28694955 180.57274405 -109.28694955 180.57274405 -104.40440369 164.62159729 C-104.18452466 156.49278826 -104.18452466 156.49278826 -107.34797668 149.29170227 C-110.82159711 146.33708062 -114.85400213 144.78391565 -119 143 C-121.44198396 140.9194482 -123.23020058 138.6638218 -125 136 C-125.57814453 135.15308594 -125.57814453 135.15308594 -126.16796875 134.2890625 C-131.3351957 126.04388448 -132.29078927 116.50219483 -131 107 C-127.07689626 95.79942276 -120.93404345 87.4543061 -110.3125 82 C-99.35153358 77.26012263 -88.34235651 78.04206323 -77.37109375 82.33203125 C-67.94908054 86.99390801 -61.95791542 94.36269665 -58 104 C-57.125 107.5625 -57.125 107.5625 -57 111 C-56.93941406 111.73476563 -56.87882812 112.46953125 -56.81640625 113.2265625 C-56.31519996 122.79504618 -59.23785947 131.8763049 -65.37890625 139.2578125 C-69.62753479 143.82380847 -73.34410918 146.91233041 -79.234375 149.171875 C-80.12866211 149.51831055 -81.02294922 149.86474609 -81.94433594 150.22167969 C-82.62270508 150.47852539 -83.30107422 150.73537109 -84 151 C-84.01401855 152.27061279 -84.01401855 152.27061279 -84.02832031 153.56689453 C-84.07252612 156.73194352 -84.13422527 159.89604812 -84.20751953 163.06054688 C-84.23561623 164.42598164 -84.25688677 165.79157564 -84.27099609 167.15722656 C-84.29257982 169.12854038 -84.3413546 171.09949631 -84.390625 173.0703125 C-84.41157227 174.25383301 -84.43251953 175.43735352 -84.45410156 176.65673828 C-85.4673839 182.86241286 -89.69426681 186.9413861 -94.04394531 191.23925781 C-94.53220795 191.72459991 -95.02047058 192.20994202 -95.52352905 192.70999146 C-96.57435885 193.75326326 -97.62749096 194.79422034 -98.68271637 195.83304596 C-100.35129101 197.47593439 -102.01339707 199.12512999 -103.67401123 200.77606201 C-107.1937471 204.27304153 -110.72131244 207.76205664 -114.25 211.25 C-118.35382328 215.30664333 -122.45438465 219.36647484 -126.54665375 223.43477631 C-128.18685077 225.06197969 -129.83293744 226.68306375 -131.47930908 228.30401611 C-132.47770949 229.29515629 -133.47583288 230.28657562 -134.47363281 231.27832031 C-135.78790253 232.57687958 -135.78790253 232.57687958 -137.12872314 233.90167236 C-139.22185811 235.78019019 -139.22185811 235.78019019 -139 238 C-139.57556641 238.23783203 -140.15113281 238.47566406 -140.74414062 238.72070312 C-143.48074948 240.27263282 -145.04753545 242.08054973 -147.09375 244.46875 C-151.99962706 250.05823288 -157.20412426 255.28223452 -162.5 260.5 C-164.28352155 262.25811526 -166.06489128 264.01841704 -167.84375 265.78125 C-168.61912109 266.54501953 -169.39449219 267.30878906 -170.19335938 268.09570312 C-172.90703324 270.95606206 -173.12539225 272.61524338 -173.13130188 276.4520874 C-173.13531006 277.38855103 -173.13931824 278.32501465 -173.14344788 279.28985596 C-173.14291916 280.32052185 -173.14239044 281.35118774 -173.1418457 282.41308594 C-173.14532013 283.49614014 -173.14879456 284.57919434 -173.15237427 285.69506836 C-173.15974047 288.05337762 -173.16508123 290.41169386 -173.16866493 292.7700119 C-173.17581507 296.50202599 -173.19147105 300.23390742 -173.21000671 303.96588135 C-173.2625431 314.57913408 -173.3108889 325.19228921 -173.32592773 335.80566406 C-173.33600321 342.29200651 -173.36531917 348.77801732 -173.40724754 355.26422882 C-173.41957048 357.73772932 -173.42467646 360.21127664 -173.42244911 362.68480682 C-173.42009909 366.146677 -173.44224223 369.6075944 -173.4699707 373.06933594 C-173.46336929 374.09190491 -173.45676788 375.11447388 -173.44996643 376.16802979 C-173.55924403 384.47489264 -176.36498879 388.62816787 -182.21777344 394.44482422 C-183.03832214 395.26522186 -183.85887085 396.08561951 -184.70428467 396.93087769 C-185.58046448 397.79673492 -186.45664429 398.66259216 -187.359375 399.5546875 C-188.26375305 400.45623566 -189.1681311 401.35778381 -190.09991455 402.28665161 C-192.48995 404.66742095 -194.88421897 407.04376088 -197.28070068 409.41802979 C-199.73115875 411.84792571 -202.17587275 414.28358605 -204.62109375 416.71875 C-209.40881611 421.48446663 -214.20220828 426.2444218 -219 431 C-217.41763638 435.22360877 -215.52981013 438.01441103 -212.5625 441.4375 C-211.65442664 442.49844207 -210.74824728 443.56100752 -209.84375 444.625 C-209.37453125 445.17671875 -208.9053125 445.7284375 -208.421875 446.296875 C-206.06390016 449.12126245 -203.81711833 452.03045225 -201.5625 454.9375 C-197.48714801 460.17136794 -193.28806327 465.27677355 -188.98022461 470.32055664 C-186.14869261 473.6361974 -183.36854418 476.98562152 -180.625 480.375 C-175.45865968 486.7180157 -170.08282565 492.87340311 -164.70703125 499.03857422 C-162.99802468 501.00226969 -161.29490251 502.97090459 -159.59375 504.94140625 C-154.1110216 511.29070812 -148.59959066 517.60476889 -142.96484375 523.8203125 C-141.18173336 525.7983952 -139.42985231 527.798558 -137.6875 529.8125 C-135.08237149 532.81051332 -132.40203891 535.72747459 -129.69311523 538.63110352 C-125.5194126 543.10631604 -121.44706297 547.59029058 -117.625 552.375 C-111.82243406 559.61480038 -105.38138623 566.27367397 -99 573 C-94.57620159 572.16499998 -92.54960306 569.72494337 -89.6875 566.4375 C-89.19894531 565.89029297 -88.71039062 565.34308594 -88.20703125 564.77929688 C-86.79544288 563.19406073 -85.39563378 561.59928399 -84 560 C-83.37738281 559.28972656 -82.75476563 558.57945312 -82.11328125 557.84765625 C-81.02913664 556.60600879 -79.94713569 555.36248661 -78.8671875 554.1171875 C-76.02205329 550.89111482 -73.10367121 547.7326456 -70.19189453 544.56689453 C-66.49353802 540.54440955 -62.82687215 536.4947933 -59.1796875 532.42578125 C-57.71206614 530.7924607 -56.23796213 529.16494457 -54.7578125 527.54296875 C-50.90187059 523.3067696 -47.16369146 519.01810419 -43.5625 514.5625 C-40.48663412 510.75912497 -37.31246834 507.09917348 -34 503.5 C-29.86270505 499.0040541 -25.97617133 494.35966866 -22.140625 489.60546875 C-20.19402714 487.23616078 -18.18766222 484.95558996 -16.125 482.6875 C-12.2718538 478.40622644 -8.74172792 473.911459 -5.2097168 469.36621094 C-2.1913514 465.49013668 0.89690559 461.69446919 4.0625 457.9375 C8.749116 452.35187904 13.21163177 446.61328847 17.62109375 440.80859375 C19.0939114 438.87682443 20.57728925 436.9535053 22.0625 435.03125 C32.13533892 421.97262115 42.01629377 408.75644938 51.05859375 394.95703125 C52.45074735 392.83658805 53.8566557 390.73228811 55.28515625 388.63671875 C75.65156647 358.66567139 93.71275415 326.16647072 106 292 C106.23428711 291.36223633 106.46857422 290.72447266 106.70996094 290.06738281 C125.64933158 238.12572783 122.71989254 181.50958812 99.59765625 131.33984375 C88.71019269 108.54485192 73.33661004 87.9267791 55.5 70.125 C54.7855069 69.41132263 54.7855069 69.41132263 54.05657959 68.68322754 C13.41671794 28.25468843 -42.568207 6.65041588 -99.625 6.5 C-114.36734217 6.53888025 -128.58249663 7.76665374 -143 11 Z " fill="#1EC8B9" transform="translate(612,212)"/>
<path d="M0 0 C7.86241701 6.52886218 12.43014185 14.97829989 13.49609375 25.1640625 C13.81585642 36.11123143 9.77757603 45.84514989 2.453125 53.91796875 C-7.07165973 62.1086081 -17.71421771 63.38005872 -29.70361328 62.97070312 C-33.74371939 62.65836851 -37.06113918 61.42218472 -40.75 59.8125 C-49.57186488 68.49099115 -49.57186488 68.49099115 -57.87890625 77.65625 C-65.0192346 85.88477035 -72.60635071 93.74667937 -80.0625 101.6875 C-80.71984131 102.38866943 -81.37718262 103.08983887 -82.05444336 103.81225586 C-86.20881953 108.22677224 -90.44377214 112.54637449 -94.75 116.8125 C-95.25249268 117.53622803 -95.75498535 118.25995605 -96.27270508 119.00561523 C-100.3649809 121.99043177 -104.74451418 121.15247596 -109.65625 120.96484375 C-111.86715339 120.9354615 -114.07809515 120.90885919 -116.2890625 120.88476562 C-119.7621501 120.82727228 -123.23084837 120.75069753 -126.70214844 120.62426758 C-140.28645335 119.57461968 -140.28645335 119.57461968 -152.49438477 124.25048828 C-155.13062108 126.88130041 -157.2324167 129.84262857 -159.33746338 132.90481567 C-161.89529049 136.35925829 -165.01619021 139.25937265 -168.08984375 142.25 C-169.35075497 143.50536081 -170.610519 144.76187491 -171.86914062 146.01953125 C-173.14186222 147.28391946 -174.41464919 148.54824187 -175.6875 149.8125 C-176.98786901 151.10783323 -178.28800019 152.40340526 -179.58789062 153.69921875 C-181.96070167 156.06396953 -184.33483874 158.42736973 -186.71069336 160.7890625 C-189.39561499 163.45841921 -192.07421013 166.13399052 -194.75 168.8125 C-195.08 169.1425 -195.41 169.4725 -195.75 169.8125 C-195.86588828 171.53568798 -195.91187324 173.26360876 -195.93081665 174.99058533 C-195.94519775 176.11341919 -195.95957886 177.23625305 -195.97439575 178.39311218 C-195.98493988 179.63615616 -195.99548401 180.87920013 -196.00634766 182.15991211 C-196.02095032 183.46072723 -196.03555298 184.76154236 -196.05059814 186.10177612 C-196.18118171 198.12799736 -196.24680884 210.15516152 -196.29844093 222.18195248 C-196.33728849 231.0688693 -196.4055055 239.95451217 -196.51298869 248.84086984 C-196.58602914 255.09150446 -196.6243059 261.34179254 -196.63746679 267.59283644 C-196.6463068 271.32401007 -196.67034295 275.05361126 -196.73213577 278.78431511 C-196.80045941 282.95718359 -196.79685539 287.12711898 -196.78759766 291.30053711 C-196.81838409 292.52536301 -196.84917053 293.7501889 -196.88088989 295.01213074 C-196.80038213 301.70237248 -195.91628609 305.36825997 -191.39994812 310.43510437 C-189.87440238 311.91976677 -188.32601565 313.38152589 -186.75 314.8125 C-185.59739448 315.98909849 -184.45011626 317.17099657 -183.31323242 318.36279297 C-182.246543 319.4293295 -181.17727217 320.49329034 -180.10546875 321.5546875 C-179.52839676 322.13034454 -178.95132477 322.70600159 -178.35676575 323.29910278 C-176.5527291 325.09764962 -174.74521637 326.89265253 -172.9375 328.6875 C-171.71135206 329.90861676 -170.4854392 331.12996961 -169.25976562 332.3515625 C-167.02121829 334.5820228 -164.78136761 336.81115446 -162.53979492 339.03857422 C-161.6191626 339.95396973 -160.69853027 340.86936523 -159.75 341.8125 C-158.97906006 342.54557373 -158.20812012 343.27864746 -157.41381836 344.03393555 C-155.27479457 346.32047822 -155.15363253 347.65291426 -155.125 350.75 C-155.30693956 354.72332521 -155.6319162 355.66111051 -158.1875 358.9375 C-161.42994524 361.05844065 -164.49740364 361.69076401 -168.34568787 361.38749695 C-171.15916833 360.71464642 -172.35894856 359.77497349 -174.47290039 357.82348633 C-175.51113449 356.86981674 -175.51113449 356.86981674 -176.57034302 355.8968811 C-180.36200758 352.27095554 -184.10362863 348.60121607 -187.80859375 344.88671875 C-188.6383522 344.05791702 -189.46811066 343.2291153 -190.32301331 342.37519836 C-192.06121573 340.63767205 -193.79817362 338.89889989 -195.53393555 337.15893555 C-198.20052182 334.48695182 -200.87245688 331.82039944 -203.54492188 329.15429688 C-205.23730026 327.46125841 -206.92936881 325.76791015 -208.62109375 324.07421875 C-209.42203964 323.27529709 -210.22298553 322.47637543 -211.04820251 321.65324402 C-211.78309402 320.91520035 -212.51798553 320.17715668 -213.27514648 319.41674805 C-213.92386215 318.76723679 -214.57257782 318.11772552 -215.24095154 317.4485321 C-218.10421196 314.3443336 -217.88696308 311.97998217 -217.9173584 307.85531616 C-217.92884918 306.5851767 -217.94033997 305.31503723 -217.95217896 304.00640869 C-217.95980439 302.59069903 -217.96727599 301.17498854 -217.97460938 299.75927734 C-217.98578242 298.27444204 -217.99729567 296.78960927 -218.00912476 295.30477905 C-218.04571748 290.41936768 -218.07090972 285.53393032 -218.09375 280.6484375 C-218.09769587 279.81720006 -218.10164173 278.98596261 -218.10570717 278.12953615 C-218.14213307 270.2889518 -218.1735768 262.44835848 -218.19481659 254.60771751 C-218.22237927 244.58107385 -218.27311476 234.55513856 -218.35529089 224.52878988 C-218.41111846 217.47815917 -218.44005797 210.4277204 -218.4492898 203.37687647 C-218.45554269 199.16655712 -218.47362115 194.95706788 -218.52067566 190.7469902 C-218.56443788 186.78223129 -218.5748022 182.81875359 -218.56004715 178.8537941 C-218.56037505 177.40257123 -218.57259332 175.95129221 -218.59789658 174.50028992 C-218.80103934 162.19664106 -218.80103934 162.19664106 -214.38684082 157.04190063 C-212.54572296 155.28528786 -212.54572296 155.28528786 -210.75 153.8125 C-209.76 152.9875 -208.77 152.1625 -207.75 151.3125 C-206.76 150.4875 -205.77 149.6625 -204.75 148.8125 C-203.66192533 147.60774737 -202.59533237 146.38340693 -201.54541016 145.14526367 C-197.87829261 140.90662624 -194.00052636 136.93473389 -190.0234375 132.98828125 C-189.31273102 132.27898972 -188.60202454 131.56969818 -187.86978149 130.83891296 C-185.62388523 128.59855515 -183.37452373 126.36171488 -181.125 124.125 C-179.60914163 122.6141664 -178.09351466 121.1031006 -176.578125 119.59179688 C-173.79879046 116.82058368 -171.01814884 114.05069745 -168.23583984 111.2824707 C-163.15650839 106.39249952 -163.15650839 106.39249952 -158.41358948 101.19482422 C-156.17001613 99.33057477 -154.80457305 99.44961126 -151.91137695 99.47192383 C-150.9305867 99.47215042 -149.94979645 99.47237701 -148.93928528 99.47261047 C-147.88295395 99.48809433 -146.82662262 99.50357819 -145.73828125 99.51953125 C-144.65491989 99.52377609 -143.57155853 99.52802094 -142.45536804 99.53239441 C-138.99082723 99.54920431 -135.52686538 99.58686152 -132.0625 99.625 C-129.71550318 99.64004381 -127.36849726 99.65373274 -125.02148438 99.66601562 C-119.26412495 99.69911539 -113.50710383 99.74933795 -107.75 99.8125 C-107.44889816 99.18575378 -107.14779633 98.55900757 -106.83757019 97.91326904 C-105.69703786 95.71019743 -104.51342543 94.35953072 -102.73828125 92.640625 C-102.14901855 92.06304443 -101.55975586 91.48546387 -100.95263672 90.89038086 C-100.3288916 90.28718018 -99.70514648 89.68397949 -99.0625 89.0625 C-94.73581897 84.80943908 -90.51219272 80.56023954 -86.58203125 75.93359375 C-84.05198021 73.00434489 -81.4357974 70.15823368 -78.8125 67.3125 C-78.29059082 66.74611816 -77.76868164 66.17973633 -77.23095703 65.59619141 C-74.38905634 62.52943703 -71.49835344 59.54055867 -68.5 56.625 C-67.24484742 55.35925541 -65.99499568 54.08823631 -64.75 52.8125 C-63.97914063 52.04679687 -63.20828125 51.28109375 -62.4140625 50.4921875 C-58.09701123 45.96767165 -58.09701123 45.96767165 -56.6953125 40.1171875 C-57.07000686 38.26482526 -57.5096835 36.42461193 -58.0078125 34.6015625 C-60.26063546 26.13569094 -58.90521005 18.40989588 -54.75 10.8125 C-48.94226627 1.51410765 -41.42447582 -4.21160845 -30.70703125 -6.71484375 C-18.88894471 -8.60386419 -9.73249484 -6.97495463 0 0 Z " fill="#1DDAC7" transform="translate(682.75,366.1875)"/>
<path d="M0 0 C8.39398424 4.83746668 13.69726456 11.97189224 17 21 C18.37748127 32.05428721 17.07209231 41.81003936 10.53125 51.08203125 C4.87926699 57.44051214 -2.88849452 61.70715356 -11.35546875 62.58203125 C-20.98272527 63.13087771 -29.07251223 61.918384 -37 56 C-41.93594888 51.49745151 -45.06969495 46.97825195 -48 41 C-53.92207369 40.7259896 -59.84038635 40.5275471 -65.76733398 40.39575195 C-67.778405 40.34077118 -69.78904312 40.26595232 -71.79858398 40.17016602 C-85.53004415 39.36521278 -85.53004415 39.36521278 -97.7109375 44.7578125 C-105.12111614 54.06815186 -104.67979828 67.15985253 -104.79231644 78.54395294 C-104.80579745 79.89218139 -104.82636042 81.2403572 -104.8539238 82.58837128 C-105.18402916 99.21677699 -103.860519 113.04633869 -92.17997742 125.91047668 C-85.22610568 132.9578126 -77.53328914 139.22274664 -69.411026 144.87246704 C-68 146 -68 146 -67 148 C-66.45275929 153.69130337 -67.40666293 156.56117185 -71 161 C-73.40513021 162.20256511 -75.12853564 162.2703777 -77.8125 162.375 C-78.66457031 162.42398438 -79.51664063 162.47296875 -80.39453125 162.5234375 C-83.98157118 161.80280279 -85.5583236 159.55191534 -88 157 C-89.25156211 155.75235659 -90.50675269 154.5083473 -91.76464844 153.26708984 C-95.60648516 149.46082877 -99.44222657 145.6484876 -103.27587891 141.83398438 C-104.93068696 140.18930047 -106.58727586 138.54640651 -108.24560547 136.90527344 C-110.64238662 134.5326639 -113.03272756 132.15373064 -115.421875 129.7734375 C-116.16661072 129.03902435 -116.91134644 128.30461121 -117.6786499 127.54794312 C-118.36316223 126.86358185 -119.04767456 126.17922058 -119.75292969 125.47412109 C-120.35739929 124.87409271 -120.9618689 124.27406433 -121.58465576 123.65585327 C-124.57963527 120.15193777 -124.16075147 116.30094796 -124.22460938 111.90161133 C-124.23599945 111.1825058 -124.24738953 110.46340027 -124.25912476 109.72250366 C-124.36971629 102.20543194 -124.41719311 94.68739129 -124.45996094 87.16967773 C-124.48222354 83.60668691 -124.52397508 80.04474563 -124.58300781 76.48217773 C-124.65425921 72.17326026 -124.69081609 67.86532918 -124.70307922 63.55585289 C-124.71345195 61.91839271 -124.73581023 60.2809607 -124.77067566 58.64383888 C-125.06155663 44.23912268 -125.06155663 44.23912268 -120.90795898 39.49072266 C-119.6129786 38.31861533 -118.3101842 37.15508751 -117 36 C-115.82676518 34.53046506 -114.67689853 33.04201985 -113.54907227 31.53735352 C-107.97144008 24.73265248 -102.78232504 18.97460439 -93.74951172 17.62841797 C-86.78661689 17.12863464 -79.8940066 17.50805071 -72.9375 17.9375 C-70.51003368 18.0229616 -68.0822747 18.10049507 -65.65429688 18.16992188 C-59.76303999 18.35540434 -53.88292183 18.63813073 -48 19 C-47.70593262 18.06285156 -47.41186523 17.12570312 -47.10888672 16.16015625 C-44.49080572 8.6990289 -38.10920115 3.21531471 -31.375 -0.625 C-21.64116937 -5.0077069 -9.66044714 -4.53100618 0 0 Z " fill="#1DD4C8" transform="translate(638,524)"/>
<path d="M0 0 C4.51148416 2.39703046 7.60323533 5.73772065 9.87109375 10.2734375 C10.39495135 15.52918915 10.53614747 19.91869845 8.18359375 24.7109375 C4.21469876 29.10890222 0.75469813 32.00442479 -5.12890625 33.2734375 C-11.47965529 33.17263196 -15.55066837 31.73577063 -20.12890625 27.2734375 C-23.88031924 22.9244543 -24.88250918 18.46051242 -24.6484375 12.7734375 C-23.52203803 7.35316938 -19.90331649 3.89575543 -15.94140625 0.2734375 C-10.82690105 -1.54505324 -5.17633709 -1.76660312 0 0 Z " fill="#0E1926" transform="translate(525.12890625,311.7265625)"/>
<path d="M0 0 C2.8499099 3.24300092 3.86662354 5.86630012 4.375 10.1875 C3.79497983 16.0843717 1.13917029 20.14990678 -3.3125 24 C-8.26118405 25.84137081 -12.32749039 25.59029751 -17.1875 23.875 C-21.28131116 21.14579256 -24.24614115 18.58069471 -25.63671875 13.8203125 C-26.43601503 8.71512983 -26.05702316 5.33900061 -23 1 C-15.73152033 -6.49181284 -8.27002735 -6.57843085 0 0 Z " fill="#0E1C27" transform="translate(671,384)"/>
<path d="M0 0 C4.66916182 1.64285323 7.62555443 3.61640817 10 8 C10.79050224 13.28345887 10.67100106 17.58057468 8.375 22.4375 C4.69072351 26.41264042 1.55412778 29.19371195 -4 29.4375 C-8.73242861 29.14003306 -12.2402296 27.9780005 -15.48046875 24.3359375 C-18.43877557 20.17607748 -19.90027733 16.38532472 -19.6328125 11.25 C-18.41588924 6.92316174 -15.29755389 3.92452743 -12 1 C-8.30506957 -0.84746521 -4.04115396 -0.3419438 0 0 Z " fill="#0D1A26" transform="translate(411,372)"/>
<path d="M0 0 C3.45658479 2.04573386 4.7785359 3.66780385 7 7 C7.58663955 11.49503031 7.5496803 15.66919506 5.8125 19.875 C0.88198158 25.65560781 0.88198158 25.65560781 -3.11328125 26.38671875 C-8.53240636 26.65084418 -11.82498649 25.67798809 -16 22 C-19.37935676 18.17006233 -19.56515969 14.30459538 -19.42578125 9.375 C-18.76914481 5.712294 -16.91095172 4.16628965 -14 2 C-9.54806278 -0.96795815 -5.22190854 -0.63458039 0 0 Z " fill="#0C1825" transform="translate(628,541)"/>
<path d="M0 0 C0 3 0 3 -1.81665039 5.14135742 C-3.06949829 6.36109253 -3.06949829 6.36109253 -4.34765625 7.60546875 C-5.72147461 8.95801758 -5.72147461 8.95801758 -7.12304688 10.33789062 C-8.10242731 11.28821127 -9.08224788 12.23807852 -10.0625 13.1875 C-16.28743979 19.2677727 -22.41054573 25.322881 -28 32 C-28.66 31.67 -29.32 31.34 -30 31 C-29.35933594 30.29875 -28.71867187 29.5975 -28.05859375 28.875 C-22.183064 22.43291768 -22.183064 22.43291768 -16.4375 15.875 C-11.43996618 10.13138886 -6.20915198 4.44311778 0 0 Z " fill="#1EB9A2" transform="translate(350,253)"/>
<path d="M0 0 C0.66 0.33 1.32 0.66 2 1 C-7.9 10.9 -17.8 20.8 -28 31 C-28.66 30.67 -29.32 30.34 -30 30 C-29.55197021 29.55720703 -29.10394043 29.11441406 -28.64233398 28.65820312 C-26.57129904 26.60823317 -24.50439303 24.55414567 -22.4375 22.5 C-21.38079102 21.45585937 -21.38079102 21.45585937 -20.30273438 20.390625 C-16.22459426 16.33127816 -12.33187137 12.19022006 -8.61914062 7.79296875 C-5.99259545 4.88444225 -3.03265954 2.47564044 0 0 Z " fill="#082029" transform="translate(396,420)"/>
<path d="M0 0 C0 3 0 3 -2.11132812 5.4519043 C-3.07697101 6.41707201 -4.05087603 7.37401783 -5.03125 8.32421875 C-5.54175903 8.83048294 -6.05226807 9.33674713 -6.57824707 9.85835266 C-8.21193407 11.47523405 -9.85573744 13.08138126 -11.5 14.6875 C-12.6087547 15.78121031 -13.71683647 16.87560326 -14.82421875 17.97070312 C-17.54173139 20.65512158 -20.26836361 23.3299581 -23 26 C-23.66 25.67 -24.32 25.34 -25 25 C-17.24274692 16.17013908 -9.32251492 7.20985866 0 0 Z " fill="#08252D" transform="translate(371,271)"/>
<path d="M0 0 C0.66 0.33 1.32 0.66 2 1 C-3.63468283 7.7116188 -9.75936424 13.86092974 -16 20 C-16.66 19.67 -17.32 19.34 -18 19 C-15.75119447 16.58221947 -13.50074339 14.16597654 -11.25 11.75 C-10.61578125 11.06808594 -9.9815625 10.38617188 -9.328125 9.68359375 C-6.26933564 6.40176767 -3.20527982 3.14052669 0 0 Z " fill="#0A2A32" transform="translate(642,425)"/>
<path d="M0 0 C0.33 0.99 0.66 1.98 1 3 C-1.07430827 5.15524226 -3.15853821 7.29901391 -5.25 9.4375 C-5.83652344 10.04916016 -6.42304688 10.66082031 -7.02734375 11.29101562 C-7.88779297 12.1659668 -7.88779297 12.1659668 -8.765625 13.05859375 C-9.55114746 13.86768188 -9.55114746 13.86768188 -10.35253906 14.69311523 C-12.21582454 16.17120758 -13.67793522 16.59165211 -16 17 C-14.625 15 -14.625 15 -13 13 C-12.34 13 -11.68 13 -11 13 C-10.76539063 12.43796875 -10.53078125 11.8759375 -10.2890625 11.296875 C-8.69337 8.45364109 -6.71075457 6.51901873 -4.375 4.25 C-3.55773437 3.45078125 -2.74046875 2.6515625 -1.8984375 1.828125 C-0.95871094 0.92320312 -0.95871094 0.92320312 0 0 Z " fill="#092D33" transform="translate(484,437)"/>
<path d="M0 0 C0 3 0 3 -1.19335938 4.53393555 C-1.73798828 5.062854 -2.28261719 5.59177246 -2.84375 6.13671875 C-3.72353516 7.00200195 -3.72353516 7.00200195 -4.62109375 7.88476562 C-5.24113281 8.47966797 -5.86117187 9.07457031 -6.5 9.6875 C-7.12003906 10.29400391 -7.74007812 10.90050781 -8.37890625 11.52539062 C-9.91264707 13.02373743 -11.45548198 14.51276493 -13 16 C-13.66 15.67 -14.32 15.34 -15 15 C-10 10 -5 5 0 0 Z " fill="#1ED5BC" transform="translate(524,468)"/>
<path d="M0 0 C0.66 0.66 1.32 1.32 2 2 C-1.96 5.96 -5.92 9.92 -10 14 C-10.66 13.67 -11.32 13.34 -12 13 C-11.55269531 12.56429688 -11.10539063 12.12859375 -10.64453125 11.6796875 C-6.85478464 7.94650427 -3.33540417 4.143987 0 0 Z " fill="#09232B" transform="translate(534,487)"/>
<path d="M0 0 C0 3 0 3 -1.6796875 5.04296875 C-2.76636719 6.10451172 -2.76636719 6.10451172 -3.875 7.1875 C-4.95394531 8.26064453 -4.95394531 8.26064453 -6.0546875 9.35546875 C-8 11 -8 11 -10 11 C-8.55218207 7.55571735 -6.72305391 5.63869038 -3.875 3.25 C-3.15054687 2.63640625 -2.42609375 2.0228125 -1.6796875 1.390625 C-0.84824219 0.70226562 -0.84824219 0.70226562 0 0 Z " fill="#22C1B7" transform="translate(476,517)"/>
<path d="M0 0 C0.99 0.33 1.98 0.66 3 1 C3.33 5.29 3.66 9.58 4 14 C3.34 13.67 2.68 13.34 2 13 C1.3671875 10.05859375 1.3671875 10.05859375 0.875 6.4375 C0.70742188 5.23996094 0.53984375 4.04242188 0.3671875 2.80859375 C0.24601563 1.88175781 0.12484375 0.95492188 0 0 Z " fill="#23C8A5" transform="translate(725,383)"/>
<path d="M0 0 C0.33 0.66 0.66 1.32 1 2 C-0.09346881 3.34212062 -1.2001575 4.67347975 -2.3125 6 C-3.23482422 7.11375 -3.23482422 7.11375 -4.17578125 8.25 C-6 10 -6 10 -9 10 C-6.03 6.7 -3.06 3.4 0 0 Z " fill="#09242E" transform="translate(623,445)"/>
<path d="M0 0 C1.32 0.33 2.64 0.66 4 1 C0.04 4.465 0.04 4.465 -4 8 C-4.66 7.67 -5.32 7.34 -6 7 C-4.02 4.69 -2.04 2.38 0 0 Z " fill="#20DAB5" transform="translate(636,367)"/>
<path d="M0 0 C0.66 0.33 1.32 0.66 2 1 C-0.64 3.64 -3.28 6.28 -6 9 C-6.33 8.34 -6.66 7.68 -7 7 C-4.78071806 4.09197539 -3.07030857 2.04687238 0 0 Z " fill="#1AD5BC" transform="translate(385,358)"/>
<path d="M0 0 C0.33 0.66 0.66 1.32 1 2 C-0.65 3.98 -2.3 5.96 -4 8 C-4.66 7.67 -5.32 7.34 -6 7 C-4.02 4.69 -2.04 2.38 0 0 Z " fill="#20D9B8" transform="translate(623,413)"/>
</svg>
